<svg id="Groupe_264" data-name="Groupe 264" xmlns="http://www.w3.org/2000/svg" width="50" height="50" viewBox="0 0 50 50">
  <circle id="Ellipse_63" data-name="Ellipse 63" cx="25" cy="25" r="25" fill="#2d652f" opacity="0.13"/>
  <path id="Icon_material-content-paste" data-name="Icon material-content-paste" d="M20.864,2.045H16.589a3.056,3.056,0,0,0-5.768,0H6.545A2.051,2.051,0,0,0,4.5,4.091V20.455A2.051,2.051,0,0,0,6.545,22.5H20.864a2.051,2.051,0,0,0,2.045-2.045V4.091A2.051,2.051,0,0,0,20.864,2.045Zm-7.159,0a1.023,1.023,0,1,1-1.023,1.023A1.026,1.026,0,0,1,13.7,2.045Zm7.159,18.409H6.545V4.091H8.591V7.159H18.818V4.091h2.045Z" transform="translate(11.5 14)" fill="#2d652f"/>
</svg>
