<svg id="Groupe_263" data-name="Groupe 263" xmlns="http://www.w3.org/2000/svg" width="50" height="50" viewBox="0 0 50 50">
  <circle id="Ellipse_62" data-name="Ellipse 62" cx="25" cy="25" r="25" fill="#2d652f" opacity="0.13"/>
  <g id="Icon_ionic-ios-journal" data-name="Icon ionic-ios-journal" transform="translate(15.41 13.809)">
    <path id="Tracé_6062" data-name="Tracé 6062" d="M5.9,2.25a1.4,1.4,0,0,0-1.4,1.4V23.228a1.4,1.4,0,0,0,1.4,1.4H22.881a.8.8,0,0,0,.8-.8h0a.8.8,0,0,0-.8-.8H6.922a.82.82,0,0,1-.819-.7.806.806,0,0,1,.794-.9H17.286V2.25Z" transform="translate(-4.5 -2.25)" fill="#2d652f"/>
    <path id="Tracé_6063" data-name="Tracé 6063" d="M29.072,21.43a.8.8,0,0,0,.8-.8V3.654a1.4,1.4,0,0,0-1.4-1.4H25.875V21.43Z" transform="translate(-10.691 -2.25)" fill="#2d652f"/>
  </g>
</svg>
