<svg xmlns="http://www.w3.org/2000/svg" width="267.899" height="109.905" viewBox="0 0 267.899 109.905">
  <g id="Groupe_1077" data-name="Groupe 1077" transform="translate(-586 -82)">
    <line id="Ligne_83" data-name="Ligne 83" y2="81" transform="translate(706.5 96.5)" fill="none" stroke="#fff" stroke-width="1" opacity="0.43"/>
    <text id="الإدارة" transform="translate(680 146)" fill="#e1ac45" font-size="36" font-family="ExpoArabic-SemiBold, Expo Arabic" font-weight="600"><tspan x="-93" y="0">الإدارة</tspan></text>
    <g id="Groupe_1415" data-name="Groupe 1415" transform="translate(284.997 31.81)">
      <g id="Groupe_1410" data-name="Groupe 1410" transform="translate(448.003 132.391)">
        <path id="Tracé_6068" data-name="Tracé 6068" d="M466.77,137.081q0,2.792-2.484,2.791h-2.1l-.012,0-.013,0a1.755,1.755,0,0,1-1.356-.474,2.206,2.206,0,0,1-.435-1.523l-.026-8.475-3.379.41.026,1.46a8.7,8.7,0,0,0-2.869-.538,5.633,5.633,0,0,0-4.391,1.933A6.763,6.763,0,0,0,448,137.338a6.347,6.347,0,0,0,1.715,4.532,5.785,5.785,0,0,0,4.4,1.817,9.7,9.7,0,0,0,4.4-1.228,5.732,5.732,0,0,0,3.635,1h2.1q5.888,0,5.889-5.224v-7.655l-3.38.409Zm-12.649,3.226a2.93,2.93,0,0,1-2.137-.883,2.976,2.976,0,0,1-.833-2.163,3.2,3.2,0,0,1,.871-2.28,2.962,2.962,0,0,1,2.253-.922,8.748,8.748,0,0,1,2.714.564v3.688a12.665,12.665,0,0,0,.1,1.434A7.312,7.312,0,0,1,454.121,140.308Z" transform="translate(-448.003 -122.462)" fill="#fff"/>
        <path id="Tracé_6069" data-name="Tracé 6069" d="M465.983,126.486a.852.852,0,0,1,.333-.717,1.435,1.435,0,0,1,.9-.255,5.35,5.35,0,0,1,1.767.384v-2.126a4.751,4.751,0,0,0-2-.537,3.041,3.041,0,0,0-2.125.743,2.527,2.527,0,0,0-.819,1.97,2.725,2.725,0,0,0,.41,1.46h-1.383v2.382h6.12l.717-2.382h-3.534A1.441,1.441,0,0,1,465.983,126.486Z" transform="translate(-446.115 -123.235)" fill="#fff"/>
        <path id="Tracé_6070" data-name="Tracé 6070" d="M480.812,130.039l2.074,2,2.458-2.432-2.483-2.433-2.049,2-2.074-2-2.432,2.433,2.483,2.432Z" transform="translate(-444.455 -122.742)" fill="#fff"/>
        <path id="Tracé_6071" data-name="Tracé 6071" d="M488.892,137.521a3.267,3.267,0,0,1-.6,2.176,2.366,2.366,0,0,1-1.883.691l-.012,0-.012,0a5.4,5.4,0,0,1-3.073-.946,6.9,6.9,0,0,0,.026-.692v-5.018l-3.379.436v3.43a2.582,2.582,0,0,1-.819,2.126,3.99,3.99,0,0,1-2.535.665c-.011,0-.015.007-.025.008s-.015-.008-.026-.008a2.364,2.364,0,0,1-1.882-.691,3.267,3.267,0,0,1-.6-2.176V125.283l-3.405.434.026,12.93q0,5.326,5.889,5.326h0q4.071,0,5.684-1.921a5.771,5.771,0,0,0,4.122,1.921q5.915,0,5.914-5.326V125.283l-3.379.434Z" transform="translate(-445.163 -122.978)" fill="#fff"/>
        <path id="Tracé_6072" data-name="Tracé 6072" d="M493.324,143.974h3.405V125.283l-3.405.435Z" transform="translate(-442.322 -122.978)" fill="#fff"/>
        <path id="Tracé_6073" data-name="Tracé 6073" d="M513.969,131.8a5.737,5.737,0,0,0-4.2-1.562h-2.432v3.483h1.69a3.317,3.317,0,0,1,2.253.755,2.474,2.474,0,0,1,.87,1.959l.026,1.049a2.2,2.2,0,0,1-.64,1.664,2.6,2.6,0,0,1-1.869.614h-6.4l.538,3.585h5.837q5.889,0,5.941-5.224l-.026-2.048A5.729,5.729,0,0,0,513.969,131.8Z" transform="translate(-441.076 -122.357)" fill="#fff"/>
        <path id="Tracé_6074" data-name="Tracé 6074" d="M533.278,128.764l2.074,2,2.458-2.433-2.484-2.432-2.048,2-2.074-2-2.433,2.432,2.484,2.433Z" transform="translate(-437.879 -122.901)" fill="#fff"/>
        <path id="Tracé_6075" data-name="Tracé 6075" d="M534.619,125.146l-1.664-1.639-1.613,1.639,1.639,1.639Z" transform="translate(-437.557 -123.201)" fill="#fff"/>
        <path id="Tracé_6076" data-name="Tracé 6076" d="M541.176,137.572q0,2.792-2.484,2.792a6.673,6.673,0,0,1-2.3-.384,6.39,6.39,0,0,0,.128-1.255v-5.019l-3.405.436.026,3.43q0,2.792-2.485,2.792a5.565,5.565,0,0,1-2.151-.436,5.768,5.768,0,0,0,.1-1.178v-5.018l-3.38.436.026,3.43q0,2.792-2.51,2.791l-.012,0-.012,0a2.364,2.364,0,0,1-1.883-.691,3.266,3.266,0,0,1-.6-2.176V125.283l-3.405.434.026,12.93q0,5.326,5.889,5.326a6.19,6.19,0,0,0,4.429-1.46,6.37,6.37,0,0,0,3.815,1.434A5.6,5.6,0,0,0,535,142.54a7.771,7.771,0,0,0,4.276,1.408,4.676,4.676,0,0,0,5.249-5.223V131.07l-3.38.434Z" transform="translate(-439.376 -122.978)" fill="#fff"/>
        <path id="Tracé_6077" data-name="Tracé 6077" d="M546.112,142.558q0,3.482-3.917,3.482l.255,2.791q3.585,0,5.3-1.446t1.715-4.7V130.448l-3.379.409Z" transform="translate(-436.196 -122.331)" fill="#fff"/>
        <path id="Tracé_6078" data-name="Tracé 6078" d="M552.923,146.528a1.335,1.335,0,0,1-.358-.946.773.773,0,0,1,.295-.627,1.179,1.179,0,0,1,.78-.244,4.814,4.814,0,0,1,1.638.384v-1.715a5.53,5.53,0,0,0-2.2-.486,2.469,2.469,0,0,0-1.767.653,2.146,2.146,0,0,0-.691,1.626,2.7,2.7,0,0,0,.333,1.356h-1.2v1.947h5.991l.41-1.947Z" transform="translate(-435.25 -120.771)" fill="#fff"/>
        <path id="Tracé_6079" data-name="Tracé 6079" d="M554.974,125.283l-3.405.435v18.256h3.405Z" transform="translate(-435.021 -122.978)" fill="#fff"/>
      </g>
      <path id="Tracé_6080" data-name="Tracé 6080" d="M537.9,78.557V62.522l0-.023c0-.007,0-.012,0-.018,0-.025-.011-.047-.013-.071a1.321,1.321,0,0,0-.048-.25c-.013-.039-.029-.075-.046-.114a1.194,1.194,0,0,0-.106-.194c-.024-.035-.046-.069-.073-.1a1.155,1.155,0,0,0-.169-.162,1.014,1.014,0,0,0-.084-.071c-.009-.007-.015-.015-.024-.02a1.274,1.274,0,0,0-.288-.137l0,0-33.7-11.1a1.3,1.3,0,0,0-.829.006L470.1,61.359h0l-.008,0a.24.24,0,0,0-.025.012,1.258,1.258,0,0,0-.249.119c-.012.008-.02.019-.033.027a1,1,0,0,0-.092.077,1.169,1.169,0,0,0-.16.156c-.027.033-.051.066-.075.1a1.208,1.208,0,0,0-.1.191,1.146,1.146,0,0,0-.046.114,1.185,1.185,0,0,0-.046.243c0,.026-.013.048-.015.074,0,.007,0,.013,0,.02l0,.023v9.251h0v6.781h0v24.672a1.22,1.22,0,0,0,.594,1.041L502.256,124h0l0,0h0a1.206,1.206,0,0,0,.162.07,1.233,1.233,0,0,0,.163.071,1.233,1.233,0,0,0,.841-.06c.016-.007.034,0,.048-.01l16.435-7.52.092-.042,0,0,17.169-7.856a1.226,1.226,0,0,0,.726-1.112V78.557Zm-2.534-14.193v6.588L504.2,83.5V76.911L534.07,64.886Zm-33.7,19.11-29.89-12.5V64.391L501.669,76.9Zm1.276-30.752,30.1,9.915-30.1,12.119-14.092-5.9-14.87-6.222ZM471.778,80.452l29.89,12.686v27.6l-29.89-18.193ZM504.2,121.026V93.149L535.367,80.41v26.357ZM475.243,105.16l.2-18.114,6.039,2.929-.154,18.9Z" transform="translate(2.662 0)" fill="#fff"/>
      <path id="Tracé_6081" data-name="Tracé 6081" d="M555.229,97.22s-16.494-18.728-34.819-14.346A114.833,114.833,0,0,0,506.967,88.8c-7.793,3.985-12.383,5.605-16.58,4.782s-9.13.438-1.864,5.913c0,0,5.691,5.254,16.118,1.17,6.536-2.443,17.369-9.673,14.065-1.7a20.378,20.378,0,0,1-15.579,7.62c-10.353.226-20.114-3.215-28.65-6.446s-11.355-2.612-12.578-2.823-6.867,1.381.782,5.112a113.229,113.229,0,0,1,18.251,9.128c8.668,5.516,24.651,14.052,45.707,4.31,20.99-10.382,32.509-7.787,39.472-4.777C566.111,111.091,563.223,106.09,555.229,97.22Z" transform="translate(1.347 4.014)" fill="#e1ac45"/>
    </g>
  </g>
</svg>
