<svg xmlns="http://www.w3.org/2000/svg" width="20.5" height="20.5" viewBox="0 0 20.5 20.5">
  <g id="Icon_feather-settings" data-name="Icon feather-settings" transform="translate(-0.5 -0.5)">
    <path id="Tracé_3174" data-name="Tracé 3174" d="M18.545,16.023A2.523,2.523,0,1,1,16.023,13.5,2.523,2.523,0,0,1,18.545,16.023Z" transform="translate(-5.273 -5.273)" fill="none" stroke="#fff" stroke-linecap="round" stroke-linejoin="round" stroke-width="2"/>
    <path id="Tracé_3175" data-name="Tracé 3175" d="M16.973,13.273a1.387,1.387,0,0,0,.278,1.53l.05.05a1.683,1.683,0,1,1-2.38,2.38l-.05-.05a1.4,1.4,0,0,0-2.371.992v.143a1.682,1.682,0,1,1-3.364,0v-.076a1.388,1.388,0,0,0-.908-1.27,1.387,1.387,0,0,0-1.53.278l-.05.05a1.683,1.683,0,1,1-2.38-2.38l.05-.05A1.4,1.4,0,0,0,3.325,12.5H3.182a1.682,1.682,0,1,1,0-3.364h.076a1.387,1.387,0,0,0,1.27-.908A1.388,1.388,0,0,0,4.25,6.7l-.05-.05a1.683,1.683,0,1,1,2.38-2.38l.05.05a1.388,1.388,0,0,0,1.53.278h.067a1.387,1.387,0,0,0,.841-1.27V3.182a1.682,1.682,0,1,1,3.364,0v.076A1.4,1.4,0,0,0,14.8,4.25l.05-.05a1.683,1.683,0,1,1,2.38,2.38l-.05.05a1.388,1.388,0,0,0-.278,1.53v.067a1.387,1.387,0,0,0,1.27.841h.143a1.682,1.682,0,1,1,0,3.364h-.076a1.387,1.387,0,0,0-1.27.841Z" fill="none" stroke="#fff" stroke-linecap="round" stroke-linejoin="round" stroke-width="2"/>
  </g>
</svg>
