<svg xmlns="http://www.w3.org/2000/svg" width="21.544" height="15.148" viewBox="0 0 21.544 15.148">
  <path id="Icon_awesome-youtube" data-name="Icon awesome-youtube" d="M22.144,6.87a2.707,2.707,0,0,0-1.9-1.917C18.559,4.5,11.822,4.5,11.822,4.5s-6.737,0-8.417.453A2.707,2.707,0,0,0,1.5,6.87a28.4,28.4,0,0,0-.45,5.219,28.4,28.4,0,0,0,.45,5.219A2.667,2.667,0,0,0,3.4,19.2c1.68.453,8.417.453,8.417.453s6.737,0,8.417-.453a2.667,2.667,0,0,0,1.9-1.886,28.4,28.4,0,0,0,.45-5.219,28.4,28.4,0,0,0-.45-5.219ZM9.619,15.293V8.886l5.631,3.2-5.631,3.2Z" transform="translate(-1.05 -4.5)" fill="#2d652f"/>
</svg>
