<svg xmlns="http://www.w3.org/2000/svg" width="21.856" height="19.124" viewBox="0 0 21.856 19.124">
  <path id="Icon_metro-equalizer" data-name="Icon metro-equalizer" d="M12.133,5.222V4.881a1.028,1.028,0,0,0-1.025-1.025H7.693A1.028,1.028,0,0,0,6.669,4.881v.342h-4.1V7.954h4.1V8.3A1.028,1.028,0,0,0,7.693,9.32h3.415A1.028,1.028,0,0,0,12.133,8.3V7.954H24.427V5.222H12.133Zm-4.1,2.732V5.222h2.732V7.954Zm12.294,3.757A1.028,1.028,0,0,0,19.3,10.686H15.889a1.028,1.028,0,0,0-1.025,1.025v.342H2.571v2.732H14.865v.342a1.028,1.028,0,0,0,1.025,1.025H19.3a1.028,1.028,0,0,0,1.025-1.025v-.342h4.1V12.052h-4.1Zm-4.1,3.074V12.052h2.732v2.732Zm-4.1,3.757a1.028,1.028,0,0,0-1.025-1.025H7.693a1.028,1.028,0,0,0-1.025,1.025v.342h-4.1v2.732h4.1v.342A1.028,1.028,0,0,0,7.693,22.98h3.415a1.028,1.028,0,0,0,1.025-1.025v-.342H24.427V18.882H12.133v-.342Zm-4.1,3.074V18.882h2.732v2.732H8.035Z" transform="translate(-2.571 -3.856)" fill="#2d652f"/>
</svg>
