<svg xmlns="http://www.w3.org/2000/svg" width="17" height="17" viewBox="0 0 17 17">
  <g id="Groupe_836" data-name="Groupe 836" transform="translate(-486.25 -199.667)">
    <g id="Rectangle_426" data-name="Rectangle 426" transform="translate(495.016 199.667)" fill="none" stroke="#fff" stroke-width="2">
      <rect width="7.969" height="7.969" rx="2.333" stroke="none"/>
      <rect x="1" y="1" width="5.969" height="5.969" rx="1.333" fill="none"/>
    </g>
    <g id="Rectangle_427" data-name="Rectangle 427" transform="translate(495.25 208.667)" fill="none" stroke="#fff" stroke-width="2">
      <path d="M1.867,0H6.133A1.867,1.867,0,0,1,8,1.867v0A6.133,6.133,0,0,1,1.867,8h0A1.867,1.867,0,0,1,0,6.133V1.867A1.867,1.867,0,0,1,1.867,0Z" stroke="none"/>
      <path d="M2,1H6A1,1,0,0,1,7,2V2A5,5,0,0,1,2,7H2A1,1,0,0,1,1,6V2A1,1,0,0,1,2,1Z" fill="none"/>
    </g>
    <line id="Ligne_80" data-name="Ligne 80" x1="2.656" transform="translate(497.672 203.651)" fill="none" stroke="#fff" stroke-linecap="round" stroke-linejoin="round" stroke-width="2"/>
    <line id="Ligne_81" data-name="Ligne 81" y1="2.656" transform="translate(499 202.323)" fill="none" stroke="#fff" stroke-linecap="round" stroke-linejoin="round" stroke-width="2"/>
    <g id="Rectangle_428" data-name="Rectangle 428" transform="translate(486.25 199.667)" fill="none" stroke="#fff" stroke-width="2">
      <path d="M5.96,0h0A2.009,2.009,0,0,1,7.969,2.009v4.1A1.859,1.859,0,0,1,6.109,7.969H1.859A1.859,1.859,0,0,1,0,6.109V5.96A5.96,5.96,0,0,1,5.96,0Z" stroke="none"/>
      <path d="M5.834,1h0A1.135,1.135,0,0,1,6.969,2.135V5.974a.995.995,0,0,1-.995.995H1.995A.995.995,0,0,1,1,5.974v-.14A4.834,4.834,0,0,1,5.834,1Z" fill="none"/>
    </g>
    <g id="Rectangle_429" data-name="Rectangle 429" transform="translate(486.25 208.667)" fill="none" stroke="#fff" stroke-width="2">
      <path d="M1.867,0H6.133A1.867,1.867,0,0,1,8,1.867V6.133A1.867,1.867,0,0,1,6.133,8h0A6.133,6.133,0,0,1,0,1.867v0A1.867,1.867,0,0,1,1.867,0Z" stroke="none"/>
      <path d="M2,1H6A1,1,0,0,1,7,2V6A1,1,0,0,1,6,7H6A5,5,0,0,1,1,2V2A1,1,0,0,1,2,1Z" fill="none"/>
    </g>
  </g>
</svg>
