<svg xmlns="http://www.w3.org/2000/svg" width="17.308" height="14.065" viewBox="0 0 17.308 14.065">
  <path id="Icon_metro-twitter" data-name="Icon metro-twitter" d="M19.878,6.482a7.1,7.1,0,0,1-2.039.559A3.562,3.562,0,0,0,19.4,5.077a7.109,7.109,0,0,1-2.255.862,3.554,3.554,0,0,0-6.051,3.239,10.081,10.081,0,0,1-7.319-3.71,3.555,3.555,0,0,0,1.1,4.741,3.536,3.536,0,0,1-1.608-.444c0,.015,0,.03,0,.045A3.553,3.553,0,0,0,6.114,13.29a3.557,3.557,0,0,1-1.6.061,3.554,3.554,0,0,0,3.317,2.466,7.124,7.124,0,0,1-4.41,1.52,7.2,7.2,0,0,1-.847-.05A10.1,10.1,0,0,0,18.117,8.78q0-.231-.01-.459a7.213,7.213,0,0,0,1.772-1.838Z" transform="translate(-2.571 -4.817)" fill="#2d652f"/>
</svg>
