<svg xmlns="http://www.w3.org/2000/svg" width="18.5" height="15.619" viewBox="0 0 18.5 15.619">
  <g id="Icon_feather-users" data-name="Icon feather-users" transform="translate(-0.5 -3.381)">
    <path id="Tracé_3138" data-name="Tracé 3138" d="M13.5,27V25.5a3,3,0,0,0-3-3h-6a3,3,0,0,0-3,3V27" transform="translate(0 -9)" fill="none" stroke="#fff" stroke-linecap="round" stroke-linejoin="round" stroke-width="2"/>
    <path id="Tracé_3139" data-name="Tracé 3139" d="M13.5,7.5a3,3,0,1,1-3-3A3,3,0,0,1,13.5,7.5Z" transform="translate(-3)" fill="none" stroke="#fff" stroke-linecap="round" stroke-linejoin="round" stroke-width="2"/>
    <path id="Tracé_3140" data-name="Tracé 3140" d="M32.25,27.1V25.6A3,3,0,0,0,30,22.7" transform="translate(-14.25 -9.098)" fill="none" stroke="#fff" stroke-linecap="round" stroke-linejoin="round" stroke-width="2"/>
    <path id="Tracé_3141" data-name="Tracé 3141" d="M24,4.7a3,3,0,0,1,0,5.812" transform="translate(-11.25 -0.098)" fill="none" stroke="#fff" stroke-linecap="round" stroke-linejoin="round" stroke-width="2"/>
  </g>
</svg>
