<svg xmlns="http://www.w3.org/2000/svg" width="17.683" height="17.679" viewBox="0 0 17.683 17.679">
  <path id="Icon_awesome-instagram" data-name="Icon awesome-instagram" d="M8.838,6.545a4.533,4.533,0,1,0,4.533,4.533A4.525,4.525,0,0,0,8.838,6.545Zm0,7.479a2.947,2.947,0,1,1,2.947-2.947,2.952,2.952,0,0,1-2.947,2.947Zm5.775-7.665A1.057,1.057,0,1,1,13.556,5.3,1.055,1.055,0,0,1,14.613,6.359Zm3,1.073a5.232,5.232,0,0,0-1.428-3.7,5.266,5.266,0,0,0-3.7-1.428c-1.46-.083-5.834-.083-7.294,0a5.259,5.259,0,0,0-3.7,1.424,5.249,5.249,0,0,0-1.428,3.7c-.083,1.46-.083,5.834,0,7.294a5.232,5.232,0,0,0,1.428,3.7,5.273,5.273,0,0,0,3.7,1.428c1.46.083,5.834.083,7.294,0a5.232,5.232,0,0,0,3.7-1.428,5.266,5.266,0,0,0,1.428-3.7c.083-1.46.083-5.831,0-7.29ZM15.73,16.288a2.983,2.983,0,0,1-1.681,1.681c-1.164.462-3.925.355-5.211.355s-4.051.1-5.211-.355a2.983,2.983,0,0,1-1.681-1.681c-.462-1.164-.355-3.925-.355-5.211s-.1-4.051.355-5.211A2.983,2.983,0,0,1,3.627,4.185c1.164-.462,3.925-.355,5.211-.355s4.051-.1,5.211.355A2.983,2.983,0,0,1,15.73,5.866c.462,1.164.355,3.925.355,5.211S16.191,15.129,15.73,16.288Z" transform="translate(0.005 -2.238)" fill="#2d652f"/>
</svg>
