<svg xmlns="http://www.w3.org/2000/svg" width="79.607" height="72.368" viewBox="0 0 79.607 72.368">
  <g id="logo_irched_ta2eh" transform="translate(-448.003 -50.19)">
    <g id="Groupe_1410" data-name="Groupe 1410" transform="translate(448.003 104.316)">
      <path id="Tracé_6068" data-name="Tracé 6068" d="M460.361,134.458q0,1.838-1.635,1.838h-1.383l-.008,0-.009,0a1.156,1.156,0,0,1-.893-.312,1.452,1.452,0,0,1-.287-1l-.017-5.58-2.225.27.017.961a5.73,5.73,0,0,0-1.889-.354,3.709,3.709,0,0,0-2.891,1.273A4.453,4.453,0,0,0,448,134.627a4.179,4.179,0,0,0,1.129,2.984,3.809,3.809,0,0,0,2.9,1.2,6.387,6.387,0,0,0,2.9-.808,3.774,3.774,0,0,0,2.393.657h1.383q3.877,0,3.878-3.44v-5.04l-2.225.269Zm-8.329,2.124a1.93,1.93,0,0,1-1.407-.582,1.96,1.96,0,0,1-.548-1.424,2.1,2.1,0,0,1,.574-1.5,1.95,1.95,0,0,1,1.483-.607,5.76,5.76,0,0,1,1.787.371v2.428a8.342,8.342,0,0,0,.067.944A4.814,4.814,0,0,1,452.032,136.583Z" transform="translate(-448.003 -124.832)" fill="#176146"/>
      <path id="Tracé_6069" data-name="Tracé 6069" d="M464.986,125.376a.561.561,0,0,1,.219-.472.945.945,0,0,1,.59-.168,3.523,3.523,0,0,1,1.163.253v-1.4a3.128,3.128,0,0,0-1.315-.353,2,2,0,0,0-1.4.489,1.664,1.664,0,0,0-.539,1.3,1.8,1.8,0,0,0,.27.961h-.911v1.569h4.03l.472-1.569h-2.327A.949.949,0,0,1,464.986,125.376Z" transform="translate(-451.904 -123.235)" fill="#176146"/>
      <path id="Tracé_6070" data-name="Tracé 6070" d="M479.273,129.059l1.366,1.315,1.618-1.6-1.635-1.6-1.349,1.315-1.366-1.315-1.6,1.6,1.635,1.6Z" transform="translate(-455.333 -124.254)" fill="#176146"/>
      <path id="Tracé_6071" data-name="Tracé 6071" d="M482.666,133.341a2.151,2.151,0,0,1-.4,1.433,1.558,1.558,0,0,1-1.24.455l-.008,0-.008,0a3.553,3.553,0,0,1-2.024-.623,4.55,4.55,0,0,0,.017-.456v-3.3l-2.225.287v2.259a1.7,1.7,0,0,1-.539,1.4,2.627,2.627,0,0,1-1.669.438c-.007,0-.01,0-.016.005s-.01-.005-.017-.005a1.557,1.557,0,0,1-1.239-.455,2.151,2.151,0,0,1-.4-1.433v-8.058l-2.242.286.017,8.514q0,3.507,3.878,3.507h0q2.681,0,3.743-1.265a3.8,3.8,0,0,0,2.714,1.265q3.895,0,3.894-3.507v-8.8l-2.225.286Z" transform="translate(-453.872 -123.765)" fill="#176146"/>
      <path id="Tracé_6072" data-name="Tracé 6072" d="M493.324,137.59h2.242V125.283l-2.242.287Z" transform="translate(-459.741 -123.765)" fill="#176146"/>
      <path id="Tracé_6073" data-name="Tracé 6073" d="M510.314,131.271a3.777,3.777,0,0,0-2.765-1.029h-1.6v2.293h1.113a2.184,2.184,0,0,1,1.483.5,1.629,1.629,0,0,1,.573,1.29l.017.691a1.447,1.447,0,0,1-.422,1.1,1.709,1.709,0,0,1-1.231.4h-4.215l.354,2.361h3.844q3.878,0,3.912-3.44l-.017-1.349A3.772,3.772,0,0,0,510.314,131.271Z" transform="translate(-462.316 -125.05)" fill="#176146"/>
      <path id="Tracé_6074" data-name="Tracé 6074" d="M531.738,127.785,533.1,129.1l1.618-1.6-1.635-1.6-1.349,1.315-1.366-1.315-1.6,1.6,1.636,1.6Z" transform="translate(-468.922 -123.925)" fill="#176146"/>
      <path id="Tracé_6075" data-name="Tracé 6075" d="M533.5,124.587l-1.1-1.079-1.062,1.079,1.079,1.079Z" transform="translate(-469.588 -123.306)" fill="#176146"/>
      <path id="Tracé_6076" data-name="Tracé 6076" d="M532.86,133.375q0,1.838-1.635,1.838a4.394,4.394,0,0,1-1.518-.253,4.207,4.207,0,0,0,.084-.826v-3.3l-2.242.287.017,2.259q0,1.838-1.636,1.838a3.664,3.664,0,0,1-1.416-.287,3.8,3.8,0,0,0,.068-.776v-3.3l-2.225.287.017,2.259q0,1.838-1.652,1.838l-.008,0-.008,0a1.557,1.557,0,0,1-1.24-.455,2.151,2.151,0,0,1-.4-1.433v-8.058l-2.242.286.017,8.514q0,3.507,3.878,3.507a4.076,4.076,0,0,0,2.917-.961,4.194,4.194,0,0,0,2.512.944,3.689,3.689,0,0,0,2.647-.927,5.117,5.117,0,0,0,2.816.927,3.079,3.079,0,0,0,3.456-3.439v-5.041l-2.225.286Z" transform="translate(-465.828 -123.765)" fill="#176146"/>
      <path id="Tracé_6077" data-name="Tracé 6077" d="M544.774,138.422q0,2.293-2.579,2.293l.168,1.838a5.341,5.341,0,0,0,3.49-.952,3.836,3.836,0,0,0,1.129-3.094v-8.058l-2.225.269Z" transform="translate(-472.399 -125.103)" fill="#176146"/>
      <path id="Tracé_6078" data-name="Tracé 6078" d="M551.838,145.286a.879.879,0,0,1-.236-.623.509.509,0,0,1,.194-.413.776.776,0,0,1,.513-.161,3.17,3.17,0,0,1,1.079.253v-1.129a3.641,3.641,0,0,0-1.449-.32,1.626,1.626,0,0,0-1.163.43,1.413,1.413,0,0,0-.455,1.071,1.777,1.777,0,0,0,.219.893h-.793v1.282h3.945l.27-1.282Z" transform="translate(-474.355 -128.327)" fill="#176146"/>
      <path id="Tracé_6079" data-name="Tracé 6079" d="M553.811,125.283l-2.242.287V137.59h2.242Z" transform="translate(-474.827 -123.765)" fill="#176146"/>
    </g>
    <path id="Tracé_6080" data-name="Tracé 6080" d="M514.452,68.868V64.408h0V58.3s0-.008,0-.012-.007-.031-.009-.047a.868.868,0,0,0-.032-.165c-.009-.026-.019-.05-.03-.075a.792.792,0,0,0-.07-.127c-.016-.023-.03-.045-.048-.067a.761.761,0,0,0-.111-.107.664.664,0,0,0-.056-.047c-.006,0-.01-.01-.016-.013a.84.84,0,0,0-.19-.09l0,0L491.7,50.233a.856.856,0,0,0-.546,0l-21.346,7.308h0l-.005,0a.168.168,0,0,0-.016.008.831.831,0,0,0-.164.079c-.008.005-.013.013-.022.018a.664.664,0,0,0-.061.05.771.771,0,0,0-.105.1c-.018.021-.033.044-.05.067a.8.8,0,0,0-.068.126.758.758,0,0,0-.03.075.776.776,0,0,0-.03.16c0,.017-.009.032-.01.049s0,.009,0,.013l0,.015V64.4h0v4.465h0V85.114a.8.8,0,0,0,.391.685l21.347,12.993h0a.8.8,0,0,0,.107.046.813.813,0,0,0,.107.047.812.812,0,0,0,.554-.039c.01,0,.022,0,.032-.007l10.822-4.951.061-.027h0l11.305-5.173a.807.807,0,0,0,.478-.732V68.868Zm-1.669-9.345v4.338l-20.52,8.263V67.785l19.665-7.918ZM490.594,72.106l-19.682-8.23V59.541l19.682,8.236Zm.84-20.249,19.818,6.529-19.817,7.98-9.279-3.883-9.792-4.1Zm-20.522,18.26,19.682,8.353V96.645l-19.682-11.98Zm21.351,26.717V78.477l20.52-8.388V87.444Zm-19.07-10.447.13-11.927,3.976,1.929-.1,12.444Z" transform="translate(-5.501)" fill="#141313"/>
    <path id="Tracé_6081" data-name="Tracé 6081" d="M522.276,92.093s-10.861-12.332-22.927-9.446a75.615,75.615,0,0,0-8.851,3.9c-5.131,2.624-8.154,3.691-10.917,3.148s-6.012.288-1.227,3.893c0,0,3.747,3.46,10.613.771,4.3-1.609,11.437-6.37,9.261-1.118a13.418,13.418,0,0,1-10.258,5.017c-6.817.149-13.245-2.117-18.865-4.244s-7.477-1.72-8.282-1.859-4.522.909.515,3.366a74.556,74.556,0,0,1,12.017,6.01c5.708,3.632,16.232,9.253,30.1,2.838,13.821-6.836,21.406-5.128,25.99-3.146A62.381,62.381,0,0,0,522.276,92.093Z" transform="translate(-2.783 -8.293)" fill="#e1ac45"/>
  </g>
</svg>
