<svg xmlns="http://www.w3.org/2000/svg" width="110.192" height="154.878" viewBox="0 0 110.192 154.878">
  <path id="Tracé_3120" data-name="Tracé 3120" d="M158.507,199.187a50.966,50.966,0,0,0-7.322-14.663,43.688,43.688,0,0,0-3.912-4.827s-1-.3-1.117-4.184a3,3,0,1,0-1.09-.808,17.727,17.727,0,0,1-9.458-3.247,17.536,17.536,0,0,1-6.013-8.108c-4.244-11.038,5.713-16.458,5.713-16.458s.378-1.757-1.862-4.445c-.123-.149-.254-.3-.395-.457-2.53-2.778-7.677-2.909-7.677-2.909a16.2,16.2,0,0,0-.752-2.1,12.184,12.184,0,0,0-3.086-4.475c-2.709-2.257-7.225-1.355-7.225-1.355a16.825,16.825,0,0,0-1.065-3.122A13.227,13.227,0,0,0,112.108,126c-1.482-2.146-4.794-3.529-6.292-4.068a3,3,0,1,0-1.526,0c-1.5.539-4.81,1.922-6.292,4.068a16.183,16.183,0,0,0-2.2,5.158s-4.516-.9-7.225,1.355-3.838,6.573-3.838,6.573-5.146.131-7.677,2.909c-2.681,2.945-2.257,4.9-2.257,4.9s5.61,3.055,6.614,9.246a13.731,13.731,0,0,1-.9,7.211,16.97,16.97,0,0,1-15.683,11.365,2.994,2.994,0,1,0-.876.7c-.1,3.977-1.12,4.283-1.12,4.283a51.923,51.923,0,0,0-8.341,12.2c-3.043,6.141-5.462,14.145-4.19,22.932q.2,1.37.436,2.666A63.9,63.9,0,0,0,53.1,226.62c3.781,11.05,9.171,15.842,9.171,15.842l.224,3.3.161,2.364a3,3,0,1,0,.978,1.051,23.831,23.831,0,0,1,6.968,1.813,25,25,0,0,1,3.185,1.634c2.9,1.762,7.283,6.382,12.7,10.539,5.339,4.1,11.677,7.747,18.573,7.747,13.885,0,25.513-14.788,31.269-18.287a24.574,24.574,0,0,1,9.728-3.4,3,3,0,1,0,1.419-1.323l.368-5.436s9.144-8.127,11.966-27.629q.209-1.442.288-2.855A36.995,36.995,0,0,0,158.507,199.187Z" transform="translate(-49.956 -116.031)" fill="#fff" opacity="0.14"/>
</svg>
